<svg xmlns="http://www.w3.org/2000/svg" width="85.663" height="94.172" viewBox="0 0 85.663 94.172"><g transform="translate(-22.43)"><g transform="translate(37.357 42.361)"><path d="M125.938,223.32l7.254,31.627q-.3.939-.692,1.849l-1.273,2.967a1.883,1.883,0,0,0-.154.747l.057,10.52H109.016V260.544a1.708,1.708,0,0,0-.2-.8l-5.643-10.617a17.561,17.561,0,0,1,.74-17.738l2.6-4.033Z" transform="translate(-101.123 -223.32)" fill="#ffe5c2"/></g><path d="M116.329,259.748l-5.643-10.617a17.561,17.561,0,0,1,.74-17.738l2.6-4.033,12.257-2.549-.342-1.491-19.426,4.04-2.6,4.033a17.561,17.561,0,0,0-.74,17.738l5.643,10.617a1.708,1.708,0,0,1,.2.8v10.486h7.511V260.545a1.708,1.708,0,0,0-.2-.8Z" transform="translate(-63.766 -180.96)" fill="#fed2a4"/><path d="M152.926,457.107v-3.425a3.87,3.87,0,0,0-3.87-3.87H127.223a3.87,3.87,0,0,0-3.87,3.87v3.425a1.553,1.553,0,0,0,1.553,1.553h26.467A1.553,1.553,0,0,0,152.926,457.107Z" transform="translate(-81.779 -364.488)" fill="#f37c7c"/><g transform="translate(22.43 0)"><g transform="translate(0 0)"><path d="M105.306,0a2.786,2.786,0,0,1,2.786,2.786V26.315a5.791,5.791,0,0,1-5.789,5.791H28.219a5.791,5.791,0,0,1-5.789-5.791V2.786A2.786,2.786,0,0,1,25.216,0Z" transform="translate(-22.43 0)" fill="#e2dee2"/></g></g><g transform="translate(31.245 16.785)"><path d="M135.7,88.49H125.243l-1.626,1.652H84.487L80.4,88.49H69.947A1.047,1.047,0,0,0,68.9,89.537v6.408a1.047,1.047,0,0,0,1.047,1.047H135.7a1.047,1.047,0,0,0,1.047-1.047V89.537A1.047,1.047,0,0,0,135.7,88.49Z" transform="translate(-68.9 -88.49)" fill="#b5adb6"/><path d="M210.469,251.134,204.09,223.32l-6.52,1.356v19.031A7.427,7.427,0,0,0,205,251.134Z" transform="translate(-173.163 -197.744)" fill="#fed2a4"/><path d="M145.282,132.208H168.9a5.476,5.476,0,0,0,5.476-5.476V88.489H129.53v38.243a5.476,5.476,0,0,0,5.475,5.476Z" transform="translate(-118.029 -88.489)" fill="#97da7b"/><path d="M158.2,128.844l-1.1-14.555a7.375,7.375,0,0,0-7.321-6.785,7.34,7.34,0,0,0-7.341,7.341v12.522a.849.849,0,0,1-1.28.731,5.47,5.47,0,0,1-2.679-4.707v-34.9H129.53v38.243a5.476,5.476,0,0,0,5.476,5.476h24.159Z" transform="translate(-118.029 -88.489)" fill="#80d261"/><path d="M159.53,88.489v32.294a.485.485,0,0,0,.378.474,6.3,6.3,0,0,1,4.782,4.872.486.486,0,0,0,.476.388h21.49a.916.916,0,0,0,.883-.757,5.692,5.692,0,0,1,5.148-4.911.341.341,0,0,0,.3-.333V88.489Z" transform="translate(-142.339 -88.489)" fill="#dbf1d0"/><path d="M159.908,121.257a6.275,6.275,0,0,1,2.878,1.514V88.489H159.53v32.294A.485.485,0,0,0,159.908,121.257Z" transform="translate(-142.339 -88.489)" fill="#c1e9af"/><path d="M199.72,190.88a7.294,7.294,0,0,0-2.15,5.191v11.673h15.59l-.928-12.228a7.375,7.375,0,0,0-7.321-6.785A7.293,7.293,0,0,0,199.72,190.88Z" transform="translate(-173.163 -169.716)" fill="#c1e9af"/><path d="M219.914,88.489a8.5,8.5,0,1,1-17,0Z" transform="translate(-177.49 -88.489)" fill="#ade194"/><g transform="translate(27.252 21.86)"><path d="M223.729,226.413a21.679,21.679,0,0,1-.231,12.66H212.57V208.226a4.5,4.5,0,0,1,8.98-.34l1.127,14.843Z" transform="translate(-212.57 -203.73)" fill="#ffe5c2"/></g></g></g></svg>