<svg xmlns="http://www.w3.org/2000/svg" width="101.639" height="101.636" viewBox="0 0 101.639 101.636"><path d="M43.266,6.208V23.047l-.158.175L31,12.218V6.208A2.222,2.222,0,0,1,33.208,4h7.85a2.222,2.222,0,0,1,2.208,2.208Z" transform="translate(23.322 3.009)" fill="#c03a2b" fill-rule="evenodd"/><path d="M59.443,58.731,49.07,69.21H9.433A4.428,4.428,0,0,1,5,64.777v-32.7L33.913,5.83l29.14,26.477Z" transform="translate(3.762 4.386)" fill="#ecf0f1" fill-rule="evenodd"/><path d="M75.348,33.451a20.745,20.745,0,0,0-8.534,4.556L37.674,11.53,8.762,37.779,6.624,39.724a2.161,2.161,0,0,1-3.137-.21L.544,36.027a2.388,2.388,0,0,1,.21-3.259L36.2.578a2.162,2.162,0,0,1,2.944,0L54.321,14.351l12.108,11Z" transform="translate(0 0)" fill="#e64c3c" fill-rule="evenodd"/><path d="M35.275,31.5V52.532H16V31.5A3.515,3.515,0,0,1,19.5,28H31.771A3.515,3.515,0,0,1,35.275,31.5Z" transform="translate(12.037 21.064)" fill="#cb8252" fill-rule="evenodd"/><path d="M80.131,53.394a20.949,20.949,0,0,1-22.412,6.2L35.938,84.777A8.06,8.06,0,0,1,21.78,79.5a7.959,7.959,0,0,1,1.963-5.274l12.7-14.7,9.059-10.479a20.982,20.982,0,0,1,2.909-23.1,19.887,19.887,0,0,1,2.015-2.015,20.838,20.838,0,0,1,15.683-5.152,1.628,1.628,0,0,1,1.121,2.681L56.948,33.348,59,45.771,71.6,46l10.286-11.88a1.626,1.626,0,0,1,2.8.718,20.933,20.933,0,0,1-4.556,18.557Z" transform="translate(16.385 14.069)" fill="#bdc3c7" fill-rule="evenodd"/><path d="M27.525,57.1a1.752,1.752,0,0,1-1.33-2.893l3.215-3.752a1.752,1.752,0,0,1,2.662,2.278l-3.215,3.752a1.752,1.752,0,0,1-1.332.615Z" transform="translate(19.389 37.522)" fill="#7f8c8d" fill-rule="evenodd"/></svg>