<svg xmlns="http://www.w3.org/2000/svg" width="54.643" height="54.643" viewBox="0 0 54.643 54.643"><path d="M27.428,0A27.416,27.416,0,0,0,0,27.215,27.6,27.6,0,0,0,27.428,54.643,27.322,27.322,0,0,0,27.428,0Z" fill="#fedb41"/><path d="M284.215,27.215A27.416,27.416,0,0,1,257,54.643V0A27.233,27.233,0,0,1,284.215,27.215Z" transform="translate(-229.572)" fill="#fc3"/><path d="M81.025,60a20.918,20.918,0,1,0,20.811,20.811A21.036,21.036,0,0,0,81.025,60Z" transform="translate(-53.596 -53.596)" fill="#fea832"/><path d="M277.811,80.811A21.036,21.036,0,0,1,257,101.836V60A20.852,20.852,0,0,1,277.811,80.811Z" transform="translate(-229.572 -53.596)" fill="#fe9923"/><path d="M196.161,167.762a1.585,1.585,0,0,1-1.6,1.6h-4.8v4.8a1.6,1.6,0,1,1-3.2,0v-4.8h-5.016a1.6,1.6,0,0,1,0-3.2h5.016v-3.415h-5.016a1.6,1.6,0,0,1,0-3.2h3.426l-4.771-7.108a1.616,1.616,0,1,1,2.689-1.793l5.272,7.62,5.059-7.62a1.616,1.616,0,1,1,2.689,1.793l-4.771,7.108h3.426a1.6,1.6,0,1,1,0,3.2h-4.8v3.415h4.8A1.585,1.585,0,0,1,196.161,167.762Z" transform="translate(-160.728 -133.93)" fill="#fedb41"/><path d="M265,167.762a1.585,1.585,0,0,1-1.6,1.6h-4.8v4.8a1.585,1.585,0,0,1-1.6,1.6v-17.5l5.059-7.62a1.616,1.616,0,1,1,2.689,1.793l-4.771,7.108H263.4a1.6,1.6,0,0,1,0,3.2h-4.8v3.415h4.8A1.585,1.585,0,0,1,265,167.762Z" transform="translate(-229.572 -133.93)" fill="#fc3"/></svg>